#N canvas 0 25 1440 847 12;
#X obj -127 131 tgl 15 0 empty empty empty 17 7 0 10 #fcfcfc #000000
#000000 0 1;
#X floatatom -60 122 5 0 0 0 - - - 0;
#X obj -127 192 bng 15 250 50 0 empty empty empty 17 7 0 10 #fcfcfc
#000000 #000000;
#X text -31 91 automatically loads 100;
#X obj -128 75 loadbang;
#X floatatom -127 246 5 0 0 0 - - - 0;
#X obj -127 303 + 1;
#X floatatom -128 328 5 0 0 0 - - - 0;
#X text 9 228 sequence adds 1;
#X text -78 254 modulo mathematical function;
#X text -92 278 divides count by number of total steps remainder is
step count;
#X text 131 130 \$1 define as an integer;
#X text 202 151 beats per min;
#X msg 12 130 tempo \$1 permin;
#X obj -14 768 bng 15 250 50 0 empty empty empty 17 7 0 10 #fcfcfc
#000000 #000000;
#X obj -184 772 bng 15 250 50 0 empty empty empty 17 7 0 10 #fcfcfc
#000000 #000000;
#X obj -95 773 bng 15 250 50 0 empty empty empty 17 7 0 10 #fcfcfc
#000000 #000000;
#X obj -141 772 bng 15 250 50 0 empty empty empty 17 7 0 10 #fcfcfc
#000000 #000000;
#X obj -127 158 metro;
#X obj 548 99 select 0;
#X obj 824 62 mtof;
#X floatatom 824 94 5 0 0 0 - - - 0;
#X obj 824 184 expr~ $v1 > $v2;
#X obj 926 128 / 100;
#X floatatom 926 94 5 0 0 0 - - - 0;
#X obj 824 226 *~ 0.75;
#X obj 914 328 output~;
#X obj 1078 262 hsl 128 15 0 3000 0 0 empty empty empty -2 -8 0 10
#c7c6ff #000000 #000000 0 1;
#X floatatom 1018 277 5 0 0 0 - - - 0;
#X text 807 295 lowpass filter;
#X text 1058 279 frequency (high) cutoff;
#X text 971 129 phase ramp signal sawtooth \, triangle \, square;
#X text 971 95 pulse width modulation;
#X floatatom -389 683 5 0 0 0 - - - 0;
#X obj -389 621 loadbang;
#X floatatom -329 683 5 0 0 0 - - - 0;
#X obj -329 621 loadbang;
#X floatatom -268 683 5 0 0 0 - - - 0;
#X obj -268 621 loadbang;
#X floatatom -147 683 5 0 0 0 - - - 0;
#X obj -147 621 loadbang;
#X floatatom -142 795 5 0 0 0 - - - 0;
#X floatatom -100 794 5 0 0 0 - - - 0;
#X floatatom -15 793 5 0 0 0 - - - 0;
#X floatatom -184 795 5 0 0 0 - - - 0;
#X obj -127 213 f;
#X obj 914 294 lop~;
#X obj 924 15 loadbang;
#X msg -390 656 53;
#X msg -329 655 60;
#X msg -268 655 65;
#X obj 26 768 bng 15 250 50 0 empty empty empty 17 7 0 10 #fcfcfc #000000
#000000;
#X floatatom 27 793 5 0 0 0 - - - 0;
#X floatatom -87 683 5 0 0 0 - - - 0;
#X obj -87 621 loadbang;
#X msg -147 655 60;
#X obj -23 230 + 1;
#X msg -87 655 67;
#X obj 68 768 bng 15 250 50 0 empty empty empty 17 7 0 10 #fcfcfc #000000
#000000;
#X floatatom 68 793 5 0 0 0 - - - 0;
#X floatatom -27 683 5 0 0 0 - - - 0;
#X obj -27 621 loadbang;
#X obj 108 769 bng 15 250 50 0 empty empty empty 17 7 0 10 #fcfcfc
#000000 #000000;
#X floatatom 109 793 5 0 0 0 - - - 0;
#X floatatom 33 683 5 0 0 0 - - - 0;
#X obj 33 621 loadbang;
#X obj 824 128 osc~;
#X obj -58 772 bng 15 250 50 0 empty empty empty 17 7 0 10 #fcfcfc
#000000 #000000;
#X floatatom -208 683 5 0 0 0 - - - 0;
#X obj -208 621 loadbang;
#X floatatom -58 794 5 0 0 0 - - - 0;
#X msg -208 655 0;
#X msg 927 67 3;
#X msg -27 655 0;
#X msg 33 655 53;
#X obj 150 769 bng 15 250 50 0 empty empty empty 17 7 0 10 #fcfcfc
#000000 #000000;
#X floatatom 151 793 5 0 0 0 - - - 0;
#X floatatom 93 683 5 0 0 0 - - - 0;
#X obj 93 621 loadbang;
#X msg 93 655 0;
#X obj 192 768 bng 15 250 50 0 empty empty empty 17 7 0 10 #fcfcfc
#000000 #000000;
#X floatatom 193 792 5 0 0 0 - - - 0;
#X floatatom 153 683 5 0 0 0 - - - 0;
#X obj 153 621 loadbang;
#X msg 153 655 60;
#X obj 233 767 bng 15 250 50 0 empty empty empty 17 7 0 10 #fcfcfc
#000000 #000000;
#X floatatom 234 791 5 0 0 0 - - - 0;
#X floatatom 213 683 5 0 0 0 - - - 0;
#X obj 213 621 loadbang;
#X msg 213 655 65;
#X obj 276 767 bng 15 250 50 0 empty empty empty 17 7 0 10 #fcfcfc
#000000 #000000;
#X floatatom 277 791 5 0 0 0 - - - 0;
#X floatatom 273 683 5 0 0 0 - - - 0;
#X obj 273 621 loadbang;
#X msg 273 655 69;
#X obj 320 765 bng 15 250 50 0 empty empty empty 17 7 0 10 #fcfcfc
#000000 #000000;
#X floatatom 321 789 5 0 0 0 - - - 0;
#X floatatom 333 683 5 0 0 0 - - - 0;
#X obj 333 621 loadbang;
#X obj 365 764 bng 15 250 50 0 empty empty empty 17 7 0 10 #fcfcfc
#000000 #000000;
#X floatatom 366 788 5 0 0 0 - - - 0;
#X floatatom 393 683 5 0 0 0 - - - 0;
#X obj 393 621 loadbang;
#X msg 393 655 0;
#X obj 405 764 bng 15 250 50 0 empty empty empty 17 7 0 10 #fcfcfc
#000000 #000000;
#X floatatom 412 790 5 0 0 0 - - - 0;
#X floatatom 454 683 5 0 0 0 - - - 0;
#X obj 454 621 loadbang;
#X msg 333 655 67;
#X msg -60 94 80;
#X obj 3077 226 dac~;
#X obj 3161 243 catch~ out;
#X obj 1637 330 +;
#X floatatom 1637 354 5 0 0 0 - - - 0;
#X floatatom 1683 247 5 0 0 0 - - - 0;
#X obj 1636 382 mtof;
#X floatatom 1636 406 5 0 0 0 - - - 0;
#X obj 1636 429 osc~;
#X obj 1636 453 lop~ 6000;
#X obj 1595 482 *~;
#X obj 1595 506 *~ 0.1;
#X obj 1595 530 throw~ out;
#X obj 1862 138 r randomize;
#X obj 1862 162 random 30000;
#X obj 1862 186 + 10000;
#X floatatom 1862 210 5 0 0 0 - - - 0;
#X obj 1788 279 metro 10000;
#X obj 1788 304 bng 15 250 50 0 empty empty empty 17 7 0 10 #fcfcfc
#000000 #000000;
#X obj 1788 246 r toggle;
#X obj 1966 320 delay 2000;
#X obj 1835 359 line 0 3;
#X obj 2036 202 r randomize;
#X obj 2036 226 random 3000;
#X obj 2036 250 + 1000;
#X floatatom 2036 274 5 0 0 0 - - - 0;
#X obj 1683 218 r note1;
#X floatatom 1834 415 5 0 0 0 - - - 0;
#X msg 1990 339 0 700;
#X obj 2744 45 tgl 15 0 empty empty empty 17 7 0 10 #fcfcfc #000000
#000000 0 1;
#X obj 2744 65 s toggle;
#X obj 2194 388 +;
#X floatatom 2194 412 5 0 0 0 - - - 0;
#X floatatom 2239 356 5 0 0 0 - - - 0;
#X obj 2193 440 mtof;
#X floatatom 2193 464 5 0 0 0 - - - 0;
#X obj 2193 487 osc~;
#X obj 2193 511 lop~ 6000;
#X obj 2193 535 *~;
#X obj 2193 559 *~ 0.1;
#X obj 2193 583 throw~ out;
#X obj 2420 223 r randomize;
#X obj 2420 247 random 30000;
#X obj 2420 271 + 10000;
#X floatatom 2420 295 5 0 0 0 - - - 0;
#X obj 2346 359 metro 10000;
#X obj 2346 384 bng 15 250 50 0 empty empty empty 17 7 0 10 #fcfcfc
#000000 #000000;
#X obj 2346 326 r toggle;
#X obj 2392 447 line 0 3;
#X obj 2488 309 r randomize;
#X obj 2488 333 random 3000;
#X obj 2488 357 + 1000;
#X floatatom 2488 381 5 0 0 0 - - - 0;
#X floatatom 2392 495 5 0 0 0 - - - 0;
#X msg 2415 422 0 700;
#X obj 2579 395 +;
#X floatatom 2579 419 5 0 0 0 - - - 0;
#X floatatom 2624 363 5 0 0 0 - - - 0;
#X obj 2578 447 mtof;
#X floatatom 2578 471 5 0 0 0 - - - 0;
#X obj 2578 494 osc~;
#X obj 2578 518 lop~ 6000;
#X obj 2578 542 *~;
#X obj 2578 566 *~ 0.1;
#X obj 2578 590 throw~ out;
#X obj 2805 230 r randomize;
#X obj 2805 254 random 30000;
#X obj 2805 278 + 10000;
#X floatatom 2805 302 5 0 0 0 - - - 0;
#X obj 2731 366 metro 10000;
#X obj 2731 391 bng 15 250 50 0 empty empty empty 17 7 0 10 #fcfcfc
#000000 #000000;
#X obj 2731 333 r toggle;
#X obj 2777 454 line 0 3;
#X obj 2873 316 r randomize;
#X obj 2873 340 random 3000;
#X obj 2873 364 + 1000;
#X floatatom 2873 388 5 0 0 0 - - - 0;
#X floatatom 2777 502 5 0 0 0 - - - 0;
#X msg 2801 430 0 700;
#X obj 2239 327 r note2;
#X obj 2624 334 r note3;
#X obj 2579 307 r LFO;
#X obj 2194 300 r LFO;
#X obj 1638 191 r LFO;
#X obj 3171 267 hip~ 600;
#X obj 3171 291 delwrite~ delBuff 900;
#X obj 3171 363 lop~ 4000;
#X obj 3171 387 throw~ out;
#X obj 3171 315 delread~ delBuff 900;
#X obj 3171 339 *~ 0.9;
#X obj 2904 40 loadbang;
#X obj 2904 68 bng 15 250 50 0 empty empty empty 17 7 0 10 #fcfcfc
#000000 #000000;
#X obj 2904 90 s randomize;
#X obj 2367 53 loadbang;
#X obj 2230 152 s note1;
#X obj 2283 152 s note2;
#X obj 2336 152 s note3;
#X obj 3133 30 r toggle;
#X obj 3134 59 metro 3;
#X obj 3134 127 snapshot~;
#X obj 3134 154 * 0.075;
#X obj 3134 178 s LFO;
#X obj 3143 100 osc~ 4;
#X obj 514 764 bng 15 250 50 0 empty empty empty 17 7 0 10 #fcfcfc
#000000 #000000;
#X floatatom 510 784 5 0 0 0 - - - 0;
#X floatatom 518 674 5 0 0 0 - - - 0;
#X obj 516 621 loadbang;
#X msg 516 645 53;
#X obj 575 764 bng 15 250 50 0 empty empty empty 17 7 0 10 #fcfcfc
#000000 #000000;
#X floatatom 575 784 5 0 0 0 - - - 0;
#X floatatom 579 674 5 0 0 0 - - - 0;
#X obj 577 621 loadbang;
#X msg 577 645 0;
#X obj 636 764 bng 15 250 50 0 empty empty empty 17 7 0 10 #fcfcfc
#000000 #000000;
#X floatatom 636 784 5 0 0 0 - - - 0;
#X floatatom 640 674 5 0 0 0 - - - 0;
#X obj 638 621 loadbang;
#X obj 756 764 bng 15 250 50 0 empty empty empty 17 7 0 10 #fcfcfc
#000000 #000000;
#X floatatom 756 784 5 0 0 0 - - - 0;
#X floatatom 760 674 5 0 0 0 - - - 0;
#X obj 758 621 loadbang;
#X obj 817 764 bng 15 250 50 0 empty empty empty 17 7 0 10 #fcfcfc
#000000 #000000;
#X floatatom 817 784 5 0 0 0 - - - 0;
#X floatatom 821 674 5 0 0 0 - - - 0;
#X obj 819 621 loadbang;
#X obj 878 764 bng 15 250 50 0 empty empty empty 17 7 0 10 #fcfcfc
#000000 #000000;
#X floatatom 878 784 5 0 0 0 - - - 0;
#X floatatom 882 674 5 0 0 0 - - - 0;
#X obj 880 621 loadbang;
#X msg 638 645 60;
#X obj 999 764 bng 15 250 50 0 empty empty empty 17 7 0 10 #fcfcfc
#000000 #000000;
#X floatatom 999 784 5 0 0 0 - - - 0;
#X floatatom 1003 674 5 0 0 0 - - - 0;
#X obj 1001 621 loadbang;
#X obj 1060 764 bng 15 250 50 0 empty empty empty 17 7 0 10 #fcfcfc
#000000 #000000;
#X floatatom 1060 784 5 0 0 0 - - - 0;
#X floatatom 1064 674 5 0 0 0 - - - 0;
#X obj 1062 621 loadbang;
#X obj 1121 764 bng 15 250 50 0 empty empty empty 17 7 0 10 #fcfcfc
#000000 #000000;
#X floatatom 1121 784 5 0 0 0 - - - 0;
#X floatatom 1125 674 5 0 0 0 - - - 0;
#X obj 1123 621 loadbang;
#X obj 1182 764 bng 15 250 50 0 empty empty empty 17 7 0 10 #fcfcfc
#000000 #000000;
#X floatatom 1182 784 5 0 0 0 - - - 0;
#X floatatom 1186 674 5 0 0 0 - - - 0;
#X obj 1184 621 loadbang;
#X obj 1242 764 bng 15 250 50 0 empty empty empty 17 7 0 10 #fcfcfc
#000000 #000000;
#X floatatom 1242 784 5 0 0 0 - - - 0;
#X floatatom 1246 674 5 0 0 0 - - - 0;
#X obj 1244 621 loadbang;
#X obj 1302 764 bng 15 250 50 0 empty empty empty 17 7 0 10 #fcfcfc
#000000 #000000;
#X floatatom 1302 784 5 0 0 0 - - - 0;
#X floatatom 1306 674 5 0 0 0 - - - 0;
#X obj 1304 621 loadbang;
#X obj 696 764 bng 15 250 50 0 empty empty empty 17 7 0 10 #fcfcfc
#000000 #000000;
#X floatatom 696 784 5 0 0 0 - - - 0;
#X floatatom 700 674 5 0 0 0 - - - 0;
#X obj 698 621 loadbang;
#X msg 698 645 0;
#X obj 939 764 bng 15 250 50 0 empty empty empty 17 7 0 10 #fcfcfc
#000000 #000000;
#X floatatom 939 784 5 0 0 0 - - - 0;
#X floatatom 943 674 5 0 0 0 - - - 0;
#X obj 941 621 loadbang;
#X msg 454 655 65;
#X obj -75 846 select 0 1 2 3 4 5 6 7 8 9 10 11 12 13 14 15;
#X msg 758 645 65;
#X msg 819 645 58;
#X msg 880 645 0;
#X msg 941 645 60;
#X msg 1001 645 0;
#X msg 1062 645 60;
#X msg 1123 645 65;
#X msg 1184 645 69;
#X msg 1244 645 67;
#X msg 1304 645 65;
#X obj 1793 781 +;
#X floatatom 1793 805 5 0 0 0 - - - 0;
#X floatatom 1838 749 5 0 0 0 - - - 0;
#X obj 1792 833 mtof;
#X floatatom 1792 857 5 0 0 0 - - - 0;
#X obj 1792 880 osc~;
#X obj 1792 904 lop~ 6000;
#X obj 1792 928 *~;
#X obj 1792 952 *~ 0.1;
#X obj 1792 976 throw~ out;
#X obj 2019 616 r randomize;
#X obj 2019 640 random 30000;
#X obj 2019 664 + 10000;
#X floatatom 2019 688 5 0 0 0 - - - 0;
#X obj 1945 752 metro 10000;
#X obj 1945 777 bng 15 250 50 0 empty empty empty 17 7 0 10 #fcfcfc
#000000 #000000;
#X obj 1945 719 r toggle;
#X obj 1991 792 delay 2000;
#X obj 1991 840 line 0 3;
#X obj 2087 702 r randomize;
#X obj 2087 726 random 3000;
#X obj 2087 750 + 1000;
#X floatatom 2087 774 5 0 0 0 - - - 0;
#X floatatom 1991 888 5 0 0 0 - - - 0;
#X msg 1991 815 0 700;
#X obj 2179 791 +;
#X floatatom 2179 815 5 0 0 0 - - - 0;
#X floatatom 2224 759 5 0 0 0 - - - 0;
#X obj 2178 843 mtof;
#X floatatom 2178 867 5 0 0 0 - - - 0;
#X obj 2178 890 osc~;
#X obj 2178 914 lop~ 6000;
#X obj 2178 938 *~;
#X obj 2178 962 *~ 0.1;
#X obj 2178 986 throw~ out;
#X obj 2405 626 r randomize;
#X obj 2405 650 random 30000;
#X obj 2405 674 + 10000;
#X floatatom 2405 698 5 0 0 0 - - - 0;
#X obj 2331 762 metro 10000;
#X obj 2331 787 bng 15 250 50 0 empty empty empty 17 7 0 10 #fcfcfc
#000000 #000000;
#X obj 2331 729 r toggle;
#X obj 2377 802 delay 2000;
#X obj 2377 850 line 0 3;
#X obj 2473 712 r randomize;
#X obj 2473 736 random 3000;
#X obj 2473 760 + 1000;
#X floatatom 2473 784 5 0 0 0 - - - 0;
#X floatatom 2377 898 5 0 0 0 - - - 0;
#X msg 2377 825 0 700;
#X obj 2564 798 +;
#X floatatom 2564 822 5 0 0 0 - - - 0;
#X floatatom 2609 766 5 0 0 0 - - - 0;
#X obj 2563 850 mtof;
#X floatatom 2563 874 5 0 0 0 - - - 0;
#X obj 2563 897 osc~;
#X obj 2563 921 lop~ 6000;
#X obj 2563 945 *~;
#X obj 2563 969 *~ 0.1;
#X obj 2563 993 throw~ out;
#X obj 2790 633 r randomize;
#X obj 2790 657 random 30000;
#X obj 2790 681 + 10000;
#X floatatom 2790 705 5 0 0 0 - - - 0;
#X obj 2716 769 metro 10000;
#X obj 2716 794 bng 15 250 50 0 empty empty empty 17 7 0 10 #fcfcfc
#000000 #000000;
#X obj 2716 736 r toggle;
#X obj 2762 857 line 0 3;
#X obj 2858 719 r randomize;
#X obj 2858 743 random 3000;
#X obj 2858 767 + 1000;
#X floatatom 2858 791 5 0 0 0 - - - 0;
#X floatatom 2762 905 5 0 0 0 - - - 0;
#X msg 2762 832 0 700;
#X obj 2564 710 r LFO;
#X obj 2179 703 r LFO;
#X obj 1793 693 r LFO;
#X obj 2762 809 delay 2000;
#X obj 1838 720 r note4;
#X obj 2224 730 r note5;
#X obj 2609 737 r note6;
#X obj 2389 152 s note4;
#X obj 2442 152 s note5;
#X obj 2495 152 s note6;
#X obj -443 1021 bng 15 250 50 0 empty empty empty 17 7 0 10 #fcfcfc
#000000 #000000;
#X floatatom -447 1041 5 0 0 0 - - - 0;
#X floatatom -439 931 5 0 0 0 - - - 0;
#X obj -441 878 loadbang;
#X obj -382 1021 bng 15 250 50 0 empty empty empty 17 7 0 10 #fcfcfc
#000000 #000000;
#X floatatom -382 1041 5 0 0 0 - - - 0;
#X floatatom -378 931 5 0 0 0 - - - 0;
#X obj -380 878 loadbang;
#X obj -263 1021 bng 15 250 50 0 empty empty empty 17 7 0 10 #fcfcfc
#000000 #000000;
#X floatatom -263 1041 5 0 0 0 - - - 0;
#X floatatom -259 931 5 0 0 0 - - - 0;
#X obj -261 878 loadbang;
#X obj -68 1020 bng 15 250 50 0 empty empty empty 17 7 0 10 #fcfcfc
#000000 #000000;
#X floatatom -68 1040 5 0 0 0 - - - 0;
#X floatatom -64 930 5 0 0 0 - - - 0;
#X obj -66 877 loadbang;
#X obj -7 1020 bng 15 250 50 0 empty empty empty 17 7 0 10 #fcfcfc
#000000 #000000;
#X floatatom -7 1040 5 0 0 0 - - - 0;
#X floatatom -3 930 5 0 0 0 - - - 0;
#X obj -5 877 loadbang;
#X obj 54 1020 bng 15 250 50 0 empty empty empty 17 7 0 10 #fcfcfc
#000000 #000000;
#X floatatom 54 1040 5 0 0 0 - - - 0;
#X floatatom 58 930 5 0 0 0 - - - 0;
#X obj 56 877 loadbang;
#X obj -203 1021 bng 15 250 50 0 empty empty empty 17 7 0 10 #fcfcfc
#000000 #000000;
#X floatatom -203 1041 5 0 0 0 - - - 0;
#X floatatom -199 931 5 0 0 0 - - - 0;
#X obj -201 878 loadbang;
#X msg -441 902 62;
#X msg -380 902 65;
#X msg -66 901 72;
#X msg -5 901 72;
#X obj 595 845 select 0 16 17 18 19 20 21 22 23 24 25 26 27 28 29 30
;
#X obj -323 1021 bng 15 250 50 0 empty empty empty 17 7 0 10 #fcfcfc
#000000 #000000;
#X floatatom -327 1041 5 0 0 0 - - - 0;
#X floatatom -319 931 5 0 0 0 - - - 0;
#X obj -321 878 loadbang;
#X msg -321 902 0;
#X obj -142 1022 bng 15 250 50 0 empty empty empty 17 7 0 10 #fcfcfc
#000000 #000000;
#X floatatom -146 1042 5 0 0 0 - - - 0;
#X floatatom -138 932 5 0 0 0 - - - 0;
#X obj -140 879 loadbang;
#X obj 114 1020 bng 15 250 50 0 empty empty empty 17 7 0 10 #fcfcfc
#000000 #000000;
#X floatatom 110 1040 5 0 0 0 - - - 0;
#X floatatom 118 930 5 0 0 0 - - - 0;
#X obj 116 877 loadbang;
#X obj 175 1020 bng 15 250 50 0 empty empty empty 17 7 0 10 #fcfcfc
#000000 #000000;
#X floatatom 175 1040 5 0 0 0 - - - 0;
#X floatatom 179 930 5 0 0 0 - - - 0;
#X obj 177 877 loadbang;
#X obj 294 1020 bng 15 250 50 0 empty empty empty 17 7 0 10 #fcfcfc
#000000 #000000;
#X floatatom 294 1040 5 0 0 0 - - - 0;
#X floatatom 298 930 5 0 0 0 - - - 0;
#X obj 296 877 loadbang;
#X obj 354 1020 bng 15 250 50 0 empty empty empty 17 7 0 10 #fcfcfc
#000000 #000000;
#X floatatom 354 1040 5 0 0 0 - - - 0;
#X floatatom 358 930 5 0 0 0 - - - 0;
#X obj 356 877 loadbang;
#X msg 356 901 65;
#X obj 234 1020 bng 15 250 50 0 empty empty empty 17 7 0 10 #fcfcfc
#000000 #000000;
#X floatatom 230 1040 5 0 0 0 - - - 0;
#X floatatom 238 930 5 0 0 0 - - - 0;
#X obj 236 877 loadbang;
#X obj 415 1021 bng 15 250 50 0 empty empty empty 17 7 0 10 #fcfcfc
#000000 #000000;
#X floatatom 411 1041 5 0 0 0 - - - 0;
#X floatatom 419 931 5 0 0 0 - - - 0;
#X obj 417 878 loadbang;
#X msg -261 902 62;
#X msg -201 902 60;
#X msg -140 903 72;
#X msg 56 901 62;
#X msg 116 901 65;
#X msg 177 901 0;
#X msg 236 901 62;
#X msg 296 901 60;
#X msg 417 902 67;
#X obj 861 1020 bng 15 250 50 0 empty empty empty 17 7 0 10 #fcfcfc
#000000 #000000;
#X floatatom 857 1040 5 0 0 0 - - - 0;
#X floatatom 865 930 5 0 0 0 - - - 0;
#X obj 863 877 loadbang;
#X obj 922 1020 bng 15 250 50 0 empty empty empty 17 7 0 10 #fcfcfc
#000000 #000000;
#X floatatom 922 1040 5 0 0 0 - - - 0;
#X floatatom 926 930 5 0 0 0 - - - 0;
#X obj 924 877 loadbang;
#X obj 1041 1020 bng 15 250 50 0 empty empty empty 17 7 0 10 #fcfcfc
#000000 #000000;
#X floatatom 1041 1040 5 0 0 0 - - - 0;
#X floatatom 1045 930 5 0 0 0 - - - 0;
#X obj 1043 877 loadbang;
#X obj 1236 1019 bng 15 250 50 0 empty empty empty 17 7 0 10 #fcfcfc
#000000 #000000;
#X floatatom 1236 1039 5 0 0 0 - - - 0;
#X floatatom 1240 929 5 0 0 0 - - - 0;
#X obj 1238 876 loadbang;
#X obj 1297 1019 bng 15 250 50 0 empty empty empty 17 7 0 10 #fcfcfc
#000000 #000000;
#X floatatom 1297 1039 5 0 0 0 - - - 0;
#X floatatom 1301 929 5 0 0 0 - - - 0;
#X obj 1299 876 loadbang;
#X obj 1358 1019 bng 15 250 50 0 empty empty empty 17 7 0 10 #fcfcfc
#000000 #000000;
#X floatatom 1358 1039 5 0 0 0 - - - 0;
#X floatatom 1362 929 5 0 0 0 - - - 0;
#X obj 1360 876 loadbang;
#X obj 1101 1020 bng 15 250 50 0 empty empty empty 17 7 0 10 #fcfcfc
#000000 #000000;
#X floatatom 1101 1040 5 0 0 0 - - - 0;
#X floatatom 1105 930 5 0 0 0 - - - 0;
#X obj 1103 877 loadbang;
#X obj 981 1020 bng 15 250 50 0 empty empty empty 17 7 0 10 #fcfcfc
#000000 #000000;
#X floatatom 977 1040 5 0 0 0 - - - 0;
#X floatatom 985 930 5 0 0 0 - - - 0;
#X obj 983 877 loadbang;
#X obj 1162 1021 bng 15 250 50 0 empty empty empty 17 7 0 10 #fcfcfc
#000000 #000000;
#X floatatom 1158 1041 5 0 0 0 - - - 0;
#X floatatom 1166 931 5 0 0 0 - - - 0;
#X obj 1164 878 loadbang;
#X msg 863 901 65;
#X msg 924 901 0;
#X msg 983 901 67;
#X msg 1043 901 69;
#X msg 1103 901 72;
#X msg 1164 902 67;
#X msg 1238 900 69;
#X msg 1299 900 70;
#X obj 562 1020 bng 15 250 50 0 empty empty empty 17 7 0 10 #fcfcfc
#000000 #000000;
#X floatatom 558 1040 5 0 0 0 - - - 0;
#X floatatom 566 930 5 0 0 0 - - - 0;
#X obj 564 877 loadbang;
#X obj 623 1020 bng 15 250 50 0 empty empty empty 17 7 0 10 #fcfcfc
#000000 #000000;
#X floatatom 623 1040 5 0 0 0 - - - 0;
#X floatatom 627 930 5 0 0 0 - - - 0;
#X obj 625 877 loadbang;
#X obj 742 1020 bng 15 250 50 0 empty empty empty 17 7 0 10 #fcfcfc
#000000 #000000;
#X floatatom 742 1040 5 0 0 0 - - - 0;
#X floatatom 746 930 5 0 0 0 - - - 0;
#X obj 744 877 loadbang;
#X obj 802 1020 bng 15 250 50 0 empty empty empty 17 7 0 10 #fcfcfc
#000000 #000000;
#X floatatom 802 1040 5 0 0 0 - - - 0;
#X floatatom 806 930 5 0 0 0 - - - 0;
#X obj 804 877 loadbang;
#X obj 682 1020 bng 15 250 50 0 empty empty empty 17 7 0 10 #fcfcfc
#000000 #000000;
#X floatatom 678 1040 5 0 0 0 - - - 0;
#X floatatom 686 930 5 0 0 0 - - - 0;
#X obj 684 877 loadbang;
#X msg 564 901 62;
#X msg 625 901 65;
#X msg 684 901 0;
#X msg 744 901 62;
#X msg 1360 900 69;
#X msg 804 901 60;
#X text -417 29 Nemo's Egg - Coded by Sarita Narayanswamy;
#X obj 77 1109 select 31 32 33 34 35 36 37 38 39 40 41 42 43 44 45
46 47 48 49 50 51 52 53 54 55 56 57 58 59 60, f 119;
#X obj -127 277 % 61;
#X obj 2969 793 +;
#X floatatom 2969 817 5 0 0 0 - - - 0;
#X floatatom 3014 761 5 0 0 0 - - - 0;
#X obj 2968 845 mtof;
#X floatatom 2968 869 5 0 0 0 - - - 0;
#X obj 2968 892 osc~;
#X obj 2968 916 lop~ 6000;
#X obj 2968 940 *~;
#X obj 2968 964 *~ 0.1;
#X obj 2968 988 throw~ out;
#X obj 3195 628 r randomize;
#X obj 3195 652 random 30000;
#X obj 3195 676 + 10000;
#X floatatom 3195 700 5 0 0 0 - - - 0;
#X obj 3121 764 metro 10000;
#X obj 3121 789 bng 15 250 50 0 empty empty empty 17 7 0 10 #fcfcfc
#000000 #000000;
#X obj 3121 731 r toggle;
#X obj 3167 852 line 0 3;
#X obj 3263 714 r randomize;
#X obj 3263 738 random 3000;
#X obj 3263 762 + 1000;
#X floatatom 3263 786 5 0 0 0 - - - 0;
#X floatatom 3167 900 5 0 0 0 - - - 0;
#X msg 3186 827 0 700;
#X obj 2969 705 r LFO;
#X obj 3167 804 delay 2000;
#X obj 3014 732 r note7;
#X obj 2548 152 s note7;
#X msg 2716 832 0.5 30;
#X msg 2331 825 0.5 30;
#X msg 1945 815 0.5 30;
#X msg 3121 827 0.35 30;
#X text 1422 452 low pass filter on oscillator;
#X text 1528 72 METRO set to 10 seconds long notes unit milleseconds
;
#X text 1705 358 line adds space btwn notes, f 17;
#X text 1697 331 volume fades;
#X text 1906 274 delay bang for 2 seconds then send 700, f 15;
#X text 1923 202 randomize note length, f 15;
#X text 1754 138 loop length;
#X text 2437 24 toggle to start all ambient sound at same time;
#X text 2759 107 randomize values within each loop;
#X text 2991 31 recieve from toggle;
#X text 3007 74 sampling rate for snapshot;
#X text 3101 98 LFO;
#X text 2989 127 convert oscillator to ctrl signal;
#X text 3044 180 send to osc;
#X text 3056 269 highpass filter;
#X text 3076 301 delay buffer;
#X text 3063 362 lowpass filter;
#X text 3104 390 feedback;
#X text 2347 176 oscillator note pitches;
#X text 2423 128 g3;
#X msg 2442 128 52;
#X text 2527 128 a;
#X msg 2548 128 57;
#X msg 2230 128 53;
#X text 2209 127 f3;
#X msg 2283 128 60;
#X text 2262 130 c4;
#X msg 2389 128 65;
#X text 2369 128 f4;
#X msg 2336 128 81;
#X text 2318 129 a5;
#X msg 1795 332 0.5 200;
#X msg 2346 422 0.5 200;
#X msg 2731 429 0.1 200;
#X obj 2777 406 delay 1000;
#X obj 2392 399 delay 1000;
#X msg 2495 128 48;
#X text 2477 128 c5;
#X text 1780 1046 AMBIENT MUSIC CODE FROM YOUTUBE: https://www.youtube.com/watch?v=7sTrn39TT7k
some comments of my code are taken from the video;
#X connect 0 0 18 0;
#X connect 1 0 13 0;
#X connect 2 0 45 0;
#X connect 4 0 0 0;
#X connect 4 0 109 0;
#X connect 5 0 516 0;
#X connect 6 0 7 0;
#X connect 7 0 273 0;
#X connect 7 0 400 0;
#X connect 7 0 515 0;
#X connect 13 0 18 0;
#X connect 14 0 43 0;
#X connect 15 0 44 0;
#X connect 16 0 42 0;
#X connect 17 0 41 0;
#X connect 18 0 2 0;
#X connect 19 1 20 0;
#X connect 20 0 21 0;
#X connect 21 0 66 0;
#X connect 22 0 25 0;
#X connect 23 0 22 1;
#X connect 24 0 23 0;
#X connect 25 0 46 0;
#X connect 27 0 28 0;
#X connect 28 0 46 1;
#X connect 33 0 44 0;
#X connect 34 0 48 0;
#X connect 35 0 41 0;
#X connect 36 0 49 0;
#X connect 37 0 42 0;
#X connect 38 0 50 0;
#X connect 39 0 43 0;
#X connect 40 0 55 0;
#X connect 41 0 19 0;
#X connect 42 0 19 0;
#X connect 43 0 19 0;
#X connect 44 0 19 0;
#X connect 45 0 5 0;
#X connect 45 0 56 0;
#X connect 46 0 26 0;
#X connect 46 0 26 1;
#X connect 47 0 72 0;
#X connect 48 0 33 0;
#X connect 49 0 35 0;
#X connect 50 0 37 0;
#X connect 51 0 52 0;
#X connect 52 0 19 0;
#X connect 53 0 52 0;
#X connect 54 0 57 0;
#X connect 55 0 39 0;
#X connect 56 0 45 1;
#X connect 57 0 53 0;
#X connect 58 0 59 0;
#X connect 59 0 19 0;
#X connect 60 0 59 0;
#X connect 61 0 73 0;
#X connect 62 0 63 0;
#X connect 63 0 19 0;
#X connect 64 0 63 0;
#X connect 65 0 74 0;
#X connect 66 0 22 0;
#X connect 67 0 70 0;
#X connect 68 0 70 0;
#X connect 69 0 71 0;
#X connect 70 0 19 0;
#X connect 71 0 68 0;
#X connect 72 0 24 0;
#X connect 73 0 60 0;
#X connect 74 0 64 0;
#X connect 75 0 76 0;
#X connect 76 0 19 0;
#X connect 77 0 76 0;
#X connect 78 0 79 0;
#X connect 79 0 77 0;
#X connect 80 0 81 0;
#X connect 81 0 19 0;
#X connect 82 0 81 0;
#X connect 83 0 84 0;
#X connect 84 0 82 0;
#X connect 85 0 86 0;
#X connect 86 0 19 0;
#X connect 87 0 86 0;
#X connect 88 0 89 0;
#X connect 89 0 87 0;
#X connect 90 0 91 0;
#X connect 91 0 19 0;
#X connect 92 0 91 0;
#X connect 93 0 94 0;
#X connect 94 0 92 0;
#X connect 95 0 96 0;
#X connect 96 0 19 0;
#X connect 97 0 96 0;
#X connect 98 0 108 0;
#X connect 99 0 100 0;
#X connect 100 0 19 0;
#X connect 101 0 100 0;
#X connect 102 0 103 0;
#X connect 103 0 101 0;
#X connect 104 0 105 0;
#X connect 105 0 19 0;
#X connect 106 0 105 0;
#X connect 107 0 272 0;
#X connect 108 0 97 0;
#X connect 109 0 1 0;
#X connect 111 0 110 0;
#X connect 111 0 110 1;
#X connect 111 0 193 0;
#X connect 112 0 113 0;
#X connect 113 0 115 0;
#X connect 114 0 112 1;
#X connect 115 0 116 0;
#X connect 116 0 117 0;
#X connect 117 0 118 0;
#X connect 118 0 119 0;
#X connect 119 0 120 0;
#X connect 120 0 121 0;
#X connect 122 0 123 0;
#X connect 123 0 124 0;
#X connect 124 0 125 0;
#X connect 125 0 126 1;
#X connect 126 0 127 0;
#X connect 127 0 129 0;
#X connect 127 0 580 0;
#X connect 128 0 126 0;
#X connect 129 0 137 0;
#X connect 130 0 136 0;
#X connect 131 0 132 0;
#X connect 132 0 133 0;
#X connect 133 0 134 0;
#X connect 134 0 129 1;
#X connect 135 0 114 0;
#X connect 136 0 119 1;
#X connect 137 0 130 0;
#X connect 138 0 139 0;
#X connect 140 0 141 0;
#X connect 141 0 143 0;
#X connect 142 0 140 1;
#X connect 143 0 144 0;
#X connect 144 0 145 0;
#X connect 145 0 146 0;
#X connect 146 0 147 0;
#X connect 147 0 148 0;
#X connect 148 0 149 0;
#X connect 150 0 151 0;
#X connect 151 0 152 0;
#X connect 152 0 153 0;
#X connect 153 0 154 1;
#X connect 154 0 155 0;
#X connect 155 0 581 0;
#X connect 155 0 584 0;
#X connect 156 0 154 0;
#X connect 157 0 162 0;
#X connect 158 0 159 0;
#X connect 159 0 160 0;
#X connect 160 0 161 0;
#X connect 161 0 584 1;
#X connect 162 0 147 1;
#X connect 163 0 157 0;
#X connect 164 0 165 0;
#X connect 165 0 167 0;
#X connect 166 0 164 1;
#X connect 167 0 168 0;
#X connect 168 0 169 0;
#X connect 169 0 170 0;
#X connect 170 0 171 0;
#X connect 171 0 172 0;
#X connect 172 0 173 0;
#X connect 174 0 175 0;
#X connect 175 0 176 0;
#X connect 176 0 177 0;
#X connect 177 0 178 1;
#X connect 178 0 179 0;
#X connect 179 0 582 0;
#X connect 179 0 583 0;
#X connect 180 0 178 0;
#X connect 181 0 186 0;
#X connect 182 0 183 0;
#X connect 183 0 184 0;
#X connect 184 0 185 0;
#X connect 185 0 583 1;
#X connect 186 0 171 1;
#X connect 187 0 181 0;
#X connect 188 0 142 0;
#X connect 189 0 166 0;
#X connect 190 0 164 0;
#X connect 191 0 140 0;
#X connect 192 0 112 0;
#X connect 193 0 194 0;
#X connect 195 0 196 0;
#X connect 197 0 198 0;
#X connect 198 0 195 0;
#X connect 199 0 200 0;
#X connect 200 0 201 0;
#X connect 202 0 572 0;
#X connect 202 0 574 0;
#X connect 202 0 578 0;
#X connect 202 0 569 0;
#X connect 202 0 585 0;
#X connect 202 0 571 0;
#X connect 202 0 576 0;
#X connect 206 0 207 0;
#X connect 207 0 208 0;
#X connect 208 0 209 0;
#X connect 209 0 210 0;
#X connect 211 0 208 0;
#X connect 212 0 213 0;
#X connect 213 0 19 0;
#X connect 214 0 213 0;
#X connect 215 0 216 0;
#X connect 216 0 214 0;
#X connect 217 0 218 0;
#X connect 218 0 19 0;
#X connect 219 0 218 0;
#X connect 220 0 221 0;
#X connect 221 0 219 0;
#X connect 222 0 223 0;
#X connect 223 0 19 0;
#X connect 224 0 223 0;
#X connect 225 0 238 0;
#X connect 226 0 227 0;
#X connect 227 0 19 0;
#X connect 228 0 227 0;
#X connect 229 0 274 0;
#X connect 230 0 231 0;
#X connect 231 0 19 0;
#X connect 232 0 231 0;
#X connect 233 0 275 0;
#X connect 234 0 235 0;
#X connect 235 0 19 0;
#X connect 236 0 235 0;
#X connect 237 0 276 0;
#X connect 238 0 224 0;
#X connect 239 0 240 0;
#X connect 240 0 19 0;
#X connect 241 0 240 0;
#X connect 242 0 278 0;
#X connect 243 0 244 0;
#X connect 244 0 19 0;
#X connect 245 0 244 0;
#X connect 246 0 279 0;
#X connect 247 0 248 0;
#X connect 248 0 19 0;
#X connect 249 0 248 0;
#X connect 250 0 280 0;
#X connect 251 0 252 0;
#X connect 252 0 19 0;
#X connect 253 0 252 0;
#X connect 254 0 281 0;
#X connect 255 0 256 0;
#X connect 256 0 19 0;
#X connect 257 0 256 0;
#X connect 258 0 282 0;
#X connect 259 0 260 0;
#X connect 260 0 19 0;
#X connect 261 0 260 0;
#X connect 262 0 283 0;
#X connect 263 0 264 0;
#X connect 264 0 19 0;
#X connect 265 0 264 0;
#X connect 266 0 267 0;
#X connect 267 0 265 0;
#X connect 268 0 269 0;
#X connect 269 0 19 0;
#X connect 270 0 269 0;
#X connect 271 0 277 0;
#X connect 272 0 106 0;
#X connect 273 1 15 0;
#X connect 273 2 17 0;
#X connect 273 3 16 0;
#X connect 273 4 67 0;
#X connect 273 5 14 0;
#X connect 273 6 51 0;
#X connect 273 7 58 0;
#X connect 273 8 62 0;
#X connect 273 9 75 0;
#X connect 273 10 80 0;
#X connect 273 11 85 0;
#X connect 273 12 90 0;
#X connect 273 13 95 0;
#X connect 273 14 99 0;
#X connect 273 15 104 0;
#X connect 274 0 228 0;
#X connect 275 0 232 0;
#X connect 276 0 236 0;
#X connect 277 0 270 0;
#X connect 278 0 241 0;
#X connect 279 0 245 0;
#X connect 280 0 249 0;
#X connect 281 0 253 0;
#X connect 282 0 257 0;
#X connect 283 0 261 0;
#X connect 284 0 285 0;
#X connect 285 0 287 0;
#X connect 286 0 284 1;
#X connect 287 0 288 0;
#X connect 288 0 289 0;
#X connect 289 0 290 0;
#X connect 290 0 291 0;
#X connect 291 0 292 0;
#X connect 292 0 293 0;
#X connect 294 0 295 0;
#X connect 295 0 296 0;
#X connect 296 0 297 0;
#X connect 297 0 298 1;
#X connect 298 0 299 0;
#X connect 299 0 301 0;
#X connect 299 0 547 0;
#X connect 300 0 298 0;
#X connect 301 0 308 0;
#X connect 302 0 307 0;
#X connect 303 0 304 0;
#X connect 304 0 305 0;
#X connect 305 0 306 0;
#X connect 306 0 301 1;
#X connect 307 0 291 1;
#X connect 308 0 302 0;
#X connect 309 0 310 0;
#X connect 310 0 312 0;
#X connect 311 0 309 1;
#X connect 312 0 313 0;
#X connect 313 0 314 0;
#X connect 314 0 315 0;
#X connect 315 0 316 0;
#X connect 316 0 317 0;
#X connect 317 0 318 0;
#X connect 319 0 320 0;
#X connect 320 0 321 0;
#X connect 321 0 322 0;
#X connect 322 0 323 1;
#X connect 323 0 324 0;
#X connect 324 0 326 0;
#X connect 324 0 546 0;
#X connect 325 0 323 0;
#X connect 326 0 333 0;
#X connect 327 0 332 0;
#X connect 328 0 329 0;
#X connect 329 0 330 0;
#X connect 330 0 331 0;
#X connect 331 0 326 1;
#X connect 332 0 316 1;
#X connect 333 0 327 0;
#X connect 334 0 335 0;
#X connect 335 0 337 0;
#X connect 336 0 334 1;
#X connect 337 0 338 0;
#X connect 338 0 339 0;
#X connect 339 0 340 0;
#X connect 340 0 341 0;
#X connect 341 0 342 0;
#X connect 342 0 343 0;
#X connect 344 0 345 0;
#X connect 345 0 346 0;
#X connect 346 0 347 0;
#X connect 347 0 348 1;
#X connect 348 0 349 0;
#X connect 349 0 361 0;
#X connect 349 0 545 0;
#X connect 350 0 348 0;
#X connect 351 0 356 0;
#X connect 352 0 353 0;
#X connect 353 0 354 0;
#X connect 354 0 355 0;
#X connect 355 0 361 1;
#X connect 356 0 341 1;
#X connect 357 0 351 0;
#X connect 358 0 334 0;
#X connect 359 0 309 0;
#X connect 360 0 284 0;
#X connect 361 0 357 0;
#X connect 362 0 286 0;
#X connect 363 0 311 0;
#X connect 364 0 336 0;
#X connect 368 0 369 0;
#X connect 369 0 19 0;
#X connect 370 0 369 0;
#X connect 371 0 396 0;
#X connect 372 0 373 0;
#X connect 373 0 19 0;
#X connect 374 0 373 0;
#X connect 375 0 397 0;
#X connect 376 0 377 0;
#X connect 377 0 19 0;
#X connect 378 0 377 0;
#X connect 379 0 435 0;
#X connect 380 0 381 0;
#X connect 381 0 19 0;
#X connect 382 0 381 0;
#X connect 383 0 398 0;
#X connect 384 0 385 0;
#X connect 385 0 19 0;
#X connect 386 0 385 0;
#X connect 387 0 399 0;
#X connect 388 0 389 0;
#X connect 389 0 19 0;
#X connect 390 0 389 0;
#X connect 391 0 438 0;
#X connect 392 0 393 0;
#X connect 393 0 19 0;
#X connect 394 0 393 0;
#X connect 395 0 436 0;
#X connect 396 0 370 0;
#X connect 397 0 374 0;
#X connect 398 0 382 0;
#X connect 399 0 386 0;
#X connect 400 1 212 0;
#X connect 400 2 217 0;
#X connect 400 3 222 0;
#X connect 400 4 263 0;
#X connect 400 5 226 0;
#X connect 400 6 230 0;
#X connect 400 7 234 0;
#X connect 400 8 268 0;
#X connect 400 9 239 0;
#X connect 400 10 243 0;
#X connect 400 11 247 0;
#X connect 400 12 251 0;
#X connect 400 13 255 0;
#X connect 400 14 259 0;
#X connect 401 0 402 0;
#X connect 403 0 402 0;
#X connect 404 0 405 0;
#X connect 405 0 403 0;
#X connect 406 0 407 0;
#X connect 407 0 19 0;
#X connect 408 0 407 0;
#X connect 409 0 437 0;
#X connect 410 0 411 0;
#X connect 411 0 19 0;
#X connect 412 0 411 0;
#X connect 413 0 439 0;
#X connect 414 0 415 0;
#X connect 415 0 19 0;
#X connect 416 0 415 0;
#X connect 417 0 440 0;
#X connect 418 0 419 0;
#X connect 419 0 19 0;
#X connect 420 0 419 0;
#X connect 421 0 442 0;
#X connect 422 0 423 0;
#X connect 423 0 19 0;
#X connect 424 0 423 0;
#X connect 425 0 426 0;
#X connect 426 0 424 0;
#X connect 427 0 428 0;
#X connect 428 0 19 0;
#X connect 429 0 428 0;
#X connect 430 0 441 0;
#X connect 431 0 432 0;
#X connect 432 0 19 0;
#X connect 433 0 432 0;
#X connect 434 0 443 0;
#X connect 435 0 378 0;
#X connect 436 0 394 0;
#X connect 437 0 408 0;
#X connect 438 0 390 0;
#X connect 439 0 412 0;
#X connect 440 0 416 0;
#X connect 441 0 429 0;
#X connect 442 0 420 0;
#X connect 443 0 433 0;
#X connect 444 0 445 0;
#X connect 445 0 19 0;
#X connect 446 0 445 0;
#X connect 447 0 480 0;
#X connect 448 0 449 0;
#X connect 449 0 19 0;
#X connect 450 0 449 0;
#X connect 451 0 481 0;
#X connect 452 0 453 0;
#X connect 453 0 19 0;
#X connect 454 0 453 0;
#X connect 455 0 483 0;
#X connect 456 0 457 0;
#X connect 457 0 19 0;
#X connect 458 0 457 0;
#X connect 459 0 486 0;
#X connect 460 0 461 0;
#X connect 461 0 19 0;
#X connect 462 0 461 0;
#X connect 463 0 487 0;
#X connect 464 0 465 0;
#X connect 465 0 19 0;
#X connect 466 0 465 0;
#X connect 467 0 512 0;
#X connect 468 0 469 0;
#X connect 469 0 19 0;
#X connect 470 0 469 0;
#X connect 471 0 484 0;
#X connect 472 0 473 0;
#X connect 473 0 19 0;
#X connect 474 0 473 0;
#X connect 475 0 482 0;
#X connect 476 0 477 0;
#X connect 477 0 19 0;
#X connect 478 0 477 0;
#X connect 479 0 485 0;
#X connect 480 0 446 0;
#X connect 481 0 450 0;
#X connect 482 0 474 0;
#X connect 483 0 454 0;
#X connect 484 0 470 0;
#X connect 485 0 478 0;
#X connect 486 0 458 0;
#X connect 487 0 462 0;
#X connect 488 0 489 0;
#X connect 489 0 19 0;
#X connect 490 0 489 0;
#X connect 491 0 508 0;
#X connect 492 0 493 0;
#X connect 493 0 19 0;
#X connect 494 0 493 0;
#X connect 495 0 509 0;
#X connect 496 0 497 0;
#X connect 497 0 19 0;
#X connect 498 0 497 0;
#X connect 499 0 511 0;
#X connect 500 0 501 0;
#X connect 501 0 19 0;
#X connect 502 0 501 0;
#X connect 503 0 513 0;
#X connect 504 0 505 0;
#X connect 505 0 19 0;
#X connect 506 0 505 0;
#X connect 507 0 510 0;
#X connect 508 0 490 0;
#X connect 509 0 494 0;
#X connect 510 0 506 0;
#X connect 511 0 498 0;
#X connect 512 0 466 0;
#X connect 513 0 502 0;
#X connect 515 1 368 0;
#X connect 515 2 372 0;
#X connect 515 3 401 0;
#X connect 515 4 376 0;
#X connect 515 5 392 0;
#X connect 515 6 406 0;
#X connect 515 7 380 0;
#X connect 515 8 384 0;
#X connect 515 9 388 0;
#X connect 515 10 410 0;
#X connect 515 11 414 0;
#X connect 515 12 427 0;
#X connect 515 13 418 0;
#X connect 515 14 422 0;
#X connect 515 15 431 0;
#X connect 515 16 488 0;
#X connect 515 17 492 0;
#X connect 515 18 504 0;
#X connect 515 19 496 0;
#X connect 515 20 500 0;
#X connect 515 21 444 0;
#X connect 515 22 448 0;
#X connect 515 23 472 0;
#X connect 515 24 452 0;
#X connect 515 25 468 0;
#X connect 515 26 476 0;
#X connect 515 27 456 0;
#X connect 515 28 460 0;
#X connect 515 29 464 0;
#X connect 516 0 6 0;
#X connect 517 0 518 0;
#X connect 518 0 520 0;
#X connect 519 0 517 1;
#X connect 520 0 521 0;
#X connect 521 0 522 0;
#X connect 522 0 523 0;
#X connect 523 0 524 0;
#X connect 524 0 525 0;
#X connect 525 0 526 0;
#X connect 527 0 528 0;
#X connect 528 0 529 0;
#X connect 529 0 530 0;
#X connect 530 0 531 1;
#X connect 531 0 532 0;
#X connect 532 0 542 0;
#X connect 532 0 548 0;
#X connect 533 0 531 0;
#X connect 534 0 539 0;
#X connect 535 0 536 0;
#X connect 536 0 537 0;
#X connect 537 0 538 0;
#X connect 538 0 542 1;
#X connect 539 0 524 1;
#X connect 540 0 534 0;
#X connect 541 0 517 0;
#X connect 542 0 540 0;
#X connect 543 0 519 0;
#X connect 545 0 351 0;
#X connect 546 0 327 0;
#X connect 547 0 302 0;
#X connect 548 0 534 0;
#X connect 569 0 366 0;
#X connect 571 0 544 0;
#X connect 572 0 203 0;
#X connect 574 0 204 0;
#X connect 576 0 365 0;
#X connect 578 0 205 0;
#X connect 580 0 130 0;
#X connect 581 0 157 0;
#X connect 582 0 181 0;
#X connect 583 0 187 0;
#X connect 584 0 163 0;
#X connect 585 0 367 0;
